<svg width="478" height="478" viewBox="0 0 478 478" fill="none" xmlns="http://www.w3.org/2000/svg">
<g filter="url(#filter0_d_16_64)">
<rect x="9" y="5" width="460" height="460" rx="13" fill="#7EC6B8" stroke="black" stroke-width="10"/>
<rect x="14" y="10" width="56.25" height="56.25" fill="white"/>
<rect x="126.5" y="10" width="56.25" height="56.25" fill="white"/>
<rect x="239" y="10" width="56.25" height="56.25" fill="white"/>
<rect x="351.5" y="10" width="56.25" height="56.25" fill="white"/>
<rect x="70.25" y="66.25" width="56.25" height="56.25" fill="white"/>
<rect x="182.75" y="66.25" width="56.25" height="56.25" fill="white"/>
<rect x="295.25" y="66.25" width="56.25" height="56.25" fill="white"/>
<rect x="407.75" y="66.25" width="56.25" height="56.25" fill="white"/>
<rect x="70.25" y="178.75" width="56.25" height="56.25" fill="white"/>
<rect x="182.75" y="178.75" width="56.25" height="56.25" fill="white"/>
<rect x="295.25" y="178.75" width="56.25" height="56.25" fill="white"/>
<rect x="407.75" y="178.75" width="56.25" height="56.25" fill="white"/>
<rect x="70.25" y="403.75" width="56.25" height="56.25" fill="white"/>
<rect x="182.75" y="403.75" width="56.25" height="56.25" fill="white"/>
<rect x="295.25" y="403.75" width="56.25" height="56.25" fill="white"/>
<rect x="407.75" y="403.75" width="56.25" height="56.25" fill="white"/>
<rect x="14" y="122.5" width="56.25" height="56.25" fill="white"/>
<rect x="126.5" y="122.5" width="56.25" height="56.25" fill="white"/>
<rect x="239" y="122.5" width="56.25" height="56.25" fill="white"/>
<rect x="351.5" y="122.5" width="56.25" height="56.25" fill="white"/>
<rect x="14" y="235" width="56.25" height="56.25" fill="white"/>
<rect x="126.5" y="235" width="56.25" height="56.25" fill="white"/>
<rect x="239" y="235" width="56.25" height="56.25" fill="white"/>
<rect x="351.5" y="235" width="56.25" height="56.25" fill="white"/>
<rect x="70.25" y="291.25" width="56.25" height="56.25" fill="white"/>
<rect x="182.75" y="291.25" width="56.25" height="56.25" fill="white"/>
<rect x="295.25" y="291.25" width="56.25" height="56.25" fill="white"/>
<rect x="407.75" y="291.25" width="56.25" height="56.25" fill="white"/>
<rect x="14" y="347.5" width="56.25" height="56.25" fill="white"/>
<rect x="126.5" y="347.5" width="56.25" height="56.25" fill="white"/>
<rect x="239" y="347.5" width="56.25" height="56.25" fill="white"/>
<rect x="351.5" y="347.5" width="56.25" height="56.25" fill="white"/>
</g>
<defs>
<filter id="filter0_d_16_64" x="0" y="0" width="478" height="478" filterUnits="userSpaceOnUse" color-interpolation-filters="sRGB">
<feFlood flood-opacity="0" result="BackgroundImageFix"/>
<feColorMatrix in="SourceAlpha" type="matrix" values="0 0 0 0 0 0 0 0 0 0 0 0 0 0 0 0 0 0 127 0" result="hardAlpha"/>
<feOffset dy="4"/>
<feGaussianBlur stdDeviation="2"/>
<feComposite in2="hardAlpha" operator="out"/>
<feColorMatrix type="matrix" values="0 0 0 0 0 0 0 0 0 0 0 0 0 0 0 0 0 0 0.25 0"/>
<feBlend mode="normal" in2="BackgroundImageFix" result="effect1_dropShadow_16_64"/>
<feBlend mode="normal" in="SourceGraphic" in2="effect1_dropShadow_16_64" result="shape"/>
</filter>
</defs>
</svg>
